G04 #@! TF.FileFunction,Soldermask,Bot*
%FSLAX46Y46*%
G04 Gerber Fmt 4.6, Leading zero omitted, Abs format (unit mm)*
G04 Created by KiCad (PCBNEW 4.0.6) date Fri Jun  2 22:43:18 2017*
%MOMM*%
%LPD*%
G01*
G04 APERTURE LIST*
%ADD10C,0.100000*%
%ADD11C,3.900000*%
%ADD12C,3.400000*%
%ADD13R,4.400000X4.400000*%
%ADD14C,4.400000*%
%ADD15R,2.200000X2.200000*%
%ADD16C,2.200000*%
%ADD17R,2.100000X2.100000*%
%ADD18O,2.100000X2.100000*%
%ADD19C,2.750000*%
%ADD20R,2.500000X4.000000*%
%ADD21O,2.500000X4.000000*%
%ADD22O,1.500000X1.900000*%
%ADD23O,1.600000X2.100000*%
%ADD24C,2.800000*%
%ADD25C,1.400000*%
%ADD26R,1.400000X1.400000*%
%ADD27O,2.800000X2.800000*%
%ADD28C,2.000000*%
%ADD29C,1.840000*%
%ADD30R,2.000000X2.000000*%
%ADD31O,2.000000X2.000000*%
%ADD32C,1.900000*%
%ADD33C,7.400000*%
%ADD34C,1.000000*%
G04 APERTURE END LIST*
D10*
D11*
X94250000Y-37700000D03*
D12*
X107000000Y-44000000D03*
X114000000Y-44000000D03*
X121000000Y-44000000D03*
D11*
X133750000Y-36700000D03*
D13*
X80264000Y-103030000D03*
D14*
X80264000Y-113030000D03*
D15*
X225806000Y-133604000D03*
D16*
X228346000Y-133604000D03*
D11*
X91500000Y-52500000D03*
X84000000Y-52500000D03*
X76500000Y-52500000D03*
X66500000Y-52500000D03*
D15*
X174505000Y-88352500D03*
D16*
X177045000Y-88352500D03*
D15*
X217678000Y-94742000D03*
D16*
X217678000Y-97282000D03*
D17*
X173980000Y-153000000D03*
D18*
X176520000Y-153000000D03*
X179060000Y-153000000D03*
X181600000Y-153000000D03*
X184140000Y-153000000D03*
X186680000Y-153000000D03*
X189220000Y-153000000D03*
X191760000Y-153000000D03*
X194300000Y-153000000D03*
X196840000Y-153000000D03*
X199380000Y-153000000D03*
X201920000Y-153000000D03*
X204460000Y-153000000D03*
X207000000Y-153000000D03*
X209540000Y-153000000D03*
X212080000Y-153000000D03*
D19*
X127508000Y-59342000D03*
X127508000Y-54342000D03*
X127508000Y-69342000D03*
X127508000Y-74342000D03*
D20*
X158000000Y-35000000D03*
D21*
X152920000Y-35000000D03*
D17*
X178308000Y-117602000D03*
D18*
X180848000Y-117602000D03*
X178308000Y-120142000D03*
X180848000Y-120142000D03*
X178308000Y-122682000D03*
X180848000Y-122682000D03*
D22*
X219840000Y-33000000D03*
X215000000Y-33000000D03*
D23*
X220150000Y-30000000D03*
X214690000Y-30000000D03*
D17*
X201460000Y-52460000D03*
D18*
X204000000Y-52460000D03*
X201460000Y-55000000D03*
X204000000Y-55000000D03*
X201460000Y-57540000D03*
X204000000Y-57540000D03*
D17*
X186920000Y-41000000D03*
D18*
X189460000Y-41000000D03*
X192000000Y-41000000D03*
X194540000Y-41000000D03*
D24*
X152908000Y-42918000D03*
X152908000Y-55118000D03*
D25*
X206648000Y-72530000D03*
X207918000Y-73800000D03*
D26*
X205378000Y-73800000D03*
D25*
X198108000Y-72530000D03*
X199378000Y-73800000D03*
D26*
X196838000Y-73800000D03*
D24*
X65532000Y-80010000D03*
D27*
X65532000Y-64770000D03*
D28*
X100500000Y-82000000D03*
X102800000Y-77000000D03*
D29*
X181610000Y-143764000D03*
X179070000Y-146304000D03*
X176530000Y-143764000D03*
D30*
X170942000Y-96012000D03*
D31*
X163322000Y-93472000D03*
X170942000Y-93472000D03*
X163322000Y-96012000D03*
D32*
X76500000Y-151000000D03*
X81500000Y-151000000D03*
X76500000Y-153500000D03*
X79000000Y-153500000D03*
X81500000Y-153500000D03*
D12*
X73600000Y-150000000D03*
X84400000Y-150000000D03*
D33*
X74500000Y-42000000D03*
D34*
X77125000Y-42000000D03*
X76356155Y-43856155D03*
X74500000Y-44625000D03*
X72643845Y-43856155D03*
X71875000Y-42000000D03*
X72643845Y-40143845D03*
X74500000Y-39375000D03*
X76356155Y-40143845D03*
D33*
X74500000Y-142000000D03*
D34*
X77125000Y-142000000D03*
X76356155Y-143856155D03*
X74500000Y-144625000D03*
X72643845Y-143856155D03*
X71875000Y-142000000D03*
X72643845Y-140143845D03*
X74500000Y-139375000D03*
X76356155Y-140143845D03*
D33*
X214500000Y-42000000D03*
D34*
X217125000Y-42000000D03*
X216356155Y-43856155D03*
X214500000Y-44625000D03*
X212643845Y-43856155D03*
X211875000Y-42000000D03*
X212643845Y-40143845D03*
X214500000Y-39375000D03*
X216356155Y-40143845D03*
D33*
X214500000Y-142000000D03*
D34*
X217125000Y-142000000D03*
X216356155Y-143856155D03*
X214500000Y-144625000D03*
X212643845Y-143856155D03*
X211875000Y-142000000D03*
X212643845Y-140143845D03*
X214500000Y-139375000D03*
X216356155Y-140143845D03*
M02*
