M48
;DRILL file {KiCad 4.0.6} date Fri Jun  2 22:43:21 2017
;FORMAT={-:-/ absolute / inch / decimal}
FMAT,2
INCH,TZ
T1C0.016
T2C0.020
T3C0.024
T4C0.026
T5C0.028
T6C0.031
T7C0.035
T8C0.039
T9C0.047
T10C0.053
T11C0.055
T12C0.071
T13C0.079
T14C0.083
T15C0.094
T16C0.138
%
G90
G05
M72
T1
X4.0569Y-5.6486
X5.6Y-5.04
X5.74Y-4.65
X5.85Y-4.87
X5.85Y-5.09
X6.14Y-4.15
X6.34Y-5.54
X6.7Y-5.57
X7.1807Y-5.404
X7.2841Y-5.4694
X7.3564Y-5.3614
X7.393Y-3.2283
X7.449Y-3.9742
X7.4581Y-5.7945
X7.4949Y-5.1724
X7.5198Y-5.2984
X7.5206Y-4.9132
X7.5272Y-5.2039
X7.6298Y-5.2354
X7.6804Y-5.3299
X7.6899Y-3.1644
X7.691Y-5.0522
X7.7106Y-5.5772
X7.7403Y-4.3898
X7.7403Y-5.0423
X7.7868Y-5.1846
X7.7877Y-5.31
X7.8125Y-5.3337
X7.8472Y-5.2354
X7.8503Y-5.2732
X7.8611Y-5.3929
X7.8611Y-5.2039
X7.8875Y-5.0711
X7.9099Y-5.4943
X7.9739Y-5.81
X8.2169Y-4.7106
X8.4692Y-5.195
X8.643Y-2.0838
X8.6517Y-2.5452
X8.7742Y-2.214
X8.7874Y-4.7827
X8.7906Y-4.7511
X9.041Y-2.4508
T2
X2.8297Y-1.6535
X2.8297Y-5.5906
X2.86Y-1.5805
X2.86Y-1.7266
X2.86Y-5.5175
X2.86Y-5.6636
X2.9331Y-1.5502
X2.9331Y-1.7569
X2.9331Y-5.4872
X2.9331Y-5.6939
X3.0061Y-1.5805
X3.0061Y-1.7266
X3.0061Y-5.5175
X3.0061Y-5.6636
X3.0364Y-1.6535
X3.0364Y-5.5906
X8.3415Y-1.6535
X8.3415Y-5.5906
X8.3718Y-1.5805
X8.3718Y-1.7266
X8.3718Y-5.5175
X8.3718Y-5.6636
X8.4449Y-1.5502
X8.4449Y-1.7569
X8.4449Y-5.4872
X8.4449Y-5.6939
X8.518Y-1.5805
X8.518Y-1.7266
X8.518Y-5.5175
X8.518Y-5.6636
X8.5482Y-1.6535
X8.5482Y-5.5906
T3
X3.9567Y-3.2283
X4.0472Y-3.0315
X7.7495Y-2.9055
X7.7995Y-2.8555
X7.8495Y-2.9055
X8.0857Y-2.9055
X8.1357Y-2.8555
X8.1857Y-2.9055
T6
X4.62Y-4.79
X4.7638Y-3.9764
X4.7638Y-4.1339
X4.7638Y-4.252
X4.8702Y-3.7202
X4.9016Y-3.9764
X4.9016Y-4.1339
X4.9016Y-4.252
X5.0394Y-3.9764
X5.0394Y-4.1339
X5.0394Y-4.252
X5.1772Y-3.9764
X5.1772Y-4.1339
X5.1772Y-4.252
X5.18Y-4.08
X6.43Y-3.68
X6.43Y-3.78
X6.73Y-3.68
X6.73Y-3.78
X6.95Y-5.66
X7.05Y-5.76
X7.15Y-5.66
T7
X6.8703Y-3.4784
X6.9703Y-3.4784
X8.57Y-3.73
X8.57Y-3.83
X8.89Y-5.26
X8.99Y-5.26
T8
X3.0118Y-5.9449
X3.0118Y-6.0433
X3.1102Y-6.0433
X3.2087Y-5.9449
X3.2087Y-6.0433
X6.8496Y-6.0236
X6.9496Y-6.0236
X7.02Y-4.63
X7.02Y-4.73
X7.02Y-4.83
X7.0496Y-6.0236
X7.12Y-4.63
X7.12Y-4.73
X7.12Y-4.83
X7.1496Y-6.0236
X7.2496Y-6.0236
X7.3496Y-6.0236
X7.3591Y-1.6142
X7.4496Y-6.0236
X7.4591Y-1.6142
X7.5496Y-6.0236
X7.5591Y-1.6142
X7.6496Y-6.0236
X7.6591Y-1.6142
X7.7496Y-6.0236
X7.8496Y-6.0236
X7.9315Y-2.0654
X7.9315Y-2.1654
X7.9315Y-2.2654
X7.9496Y-6.0236
X8.0315Y-2.0654
X8.0315Y-2.1654
X8.0315Y-2.2654
X8.0496Y-6.0236
X8.1496Y-6.0236
X8.2496Y-6.0236
X8.3496Y-6.0236
T9
X2.58Y-2.55
X2.58Y-3.15
X6.02Y-1.6897
X6.02Y-2.17
T10
X5.02Y-2.1394
X5.02Y-2.3363
X5.02Y-2.73
X5.02Y-2.9269
T11
X6.0205Y-1.378
X6.2205Y-1.378
T12
X4.2126Y-1.7323
X4.4882Y-1.7323
X4.7638Y-1.7323
T13
X3.16Y-4.0563
X3.16Y-4.45
T14
X2.8976Y-5.9055
X3.3228Y-5.9055
T15
X2.6181Y-2.0669
X3.0118Y-2.0669
X3.3071Y-2.0669
X3.6024Y-2.0669
T16
X2.9331Y-1.6535
X2.9331Y-5.5906
X8.4449Y-1.6535
X8.4449Y-5.5906
T4
X8.4646Y-1.2913G85X8.4646Y-1.3071
G05
X8.6551Y-1.2913G85X8.6551Y-1.3071
G05
T5
X8.4524Y-1.1713G85X8.4524Y-1.1909
G05
X8.6673Y-1.1713G85X8.6673Y-1.1909
G05
T0
M30
