G04 #@! TF.FileFunction,Copper,L1,Top,Signal*
%FSLAX46Y46*%
G04 Gerber Fmt 4.6, Leading zero omitted, Abs format (unit mm)*
G04 Created by KiCad (PCBNEW 4.0.6) date Fri Jun  2 22:43:18 2017*
%MOMM*%
%LPD*%
G01*
G04 APERTURE LIST*
%ADD10C,0.100000*%
%ADD11R,1.200000X2.200000*%
%ADD12R,5.800000X6.400000*%
%ADD13R,2.750000X3.050000*%
%ADD14R,1.250000X1.500000*%
%ADD15R,1.600000X2.600000*%
%ADD16C,3.000000*%
%ADD17R,2.000000X1.600000*%
%ADD18R,2.600000X1.600000*%
%ADD19R,3.500000X1.600000*%
%ADD20R,1.500000X1.250000*%
%ADD21R,3.000000X2.200000*%
%ADD22R,4.000000X4.000000*%
%ADD23C,4.000000*%
%ADD24R,1.800000X1.800000*%
%ADD25C,1.800000*%
%ADD26C,3.500000*%
%ADD27R,1.700000X1.700000*%
%ADD28O,1.700000X1.700000*%
%ADD29C,2.350000*%
%ADD30R,2.100000X3.600000*%
%ADD31O,2.100000X3.600000*%
%ADD32R,0.400000X1.650000*%
%ADD33O,1.100000X1.500000*%
%ADD34O,1.200000X1.700000*%
%ADD35R,1.430000X2.500000*%
%ADD36R,1.500000X2.200000*%
%ADD37C,2.400000*%
%ADD38R,3.180000X3.180000*%
%ADD39C,1.000000*%
%ADD40R,1.000000X1.000000*%
%ADD41R,1.300000X1.500000*%
%ADD42R,3.200000X2.700000*%
%ADD43R,1.500000X1.300000*%
%ADD44O,2.400000X2.400000*%
%ADD45C,1.600000*%
%ADD46C,1.440000*%
%ADD47R,0.508000X1.143000*%
%ADD48R,0.550000X1.600000*%
%ADD49R,1.600000X0.550000*%
%ADD50R,1.143000X0.508000*%
%ADD51R,1.600000X1.600000*%
%ADD52O,1.600000X1.600000*%
%ADD53O,1.000000X3.000000*%
%ADD54O,3.000000X1.000000*%
%ADD55R,7.875000X2.000000*%
%ADD56R,2.000000X3.500000*%
%ADD57R,7.000000X7.000000*%
%ADD58R,3.500000X2.000000*%
%ADD59C,1.500000*%
%ADD60C,7.000000*%
%ADD61C,0.600000*%
%ADD62C,1.200000*%
%ADD63C,1.000000*%
%ADD64C,2.000000*%
%ADD65C,0.250000*%
%ADD66C,0.254000*%
G04 APERTURE END LIST*
D10*
D11*
X128263000Y-97435000D03*
X123703000Y-97435000D03*
D12*
X125983000Y-103735000D03*
D13*
X124458000Y-105410000D03*
X127508000Y-102060000D03*
X127508000Y-105410000D03*
X124458000Y-102060000D03*
D14*
X145542000Y-131552000D03*
X145542000Y-129052000D03*
D15*
X139192000Y-118154000D03*
X139192000Y-114554000D03*
D16*
X107000000Y-44000000D03*
X114000000Y-44000000D03*
X121000000Y-44000000D03*
D17*
X101500000Y-85500000D03*
X105500000Y-85500000D03*
D18*
X138662000Y-88138000D03*
X142262000Y-88138000D03*
D19*
X149794000Y-137668000D03*
X155194000Y-137668000D03*
D20*
X191882000Y-118214000D03*
X189382000Y-118214000D03*
X202882000Y-118214000D03*
X200382000Y-118214000D03*
D21*
X103632000Y-94022000D03*
X103632000Y-99822000D03*
D22*
X80264000Y-103030000D03*
D23*
X80264000Y-113030000D03*
D20*
X84750000Y-146000000D03*
X82250000Y-146000000D03*
X90250000Y-145542000D03*
X87750000Y-145542000D03*
D14*
X229000000Y-63500000D03*
X229000000Y-66000000D03*
X217000000Y-63500000D03*
X217000000Y-66000000D03*
D24*
X225806000Y-133604000D03*
D25*
X228346000Y-133604000D03*
D26*
X91500000Y-52500000D03*
X84000000Y-52500000D03*
X76500000Y-52500000D03*
X66500000Y-52500000D03*
D24*
X174505000Y-88352500D03*
D25*
X177045000Y-88352500D03*
D24*
X217678000Y-94742000D03*
D25*
X217678000Y-97282000D03*
D27*
X173980000Y-153000000D03*
D28*
X176520000Y-153000000D03*
X179060000Y-153000000D03*
X181600000Y-153000000D03*
X184140000Y-153000000D03*
X186680000Y-153000000D03*
X189220000Y-153000000D03*
X191760000Y-153000000D03*
X194300000Y-153000000D03*
X196840000Y-153000000D03*
X199380000Y-153000000D03*
X201920000Y-153000000D03*
X204460000Y-153000000D03*
X207000000Y-153000000D03*
X209540000Y-153000000D03*
X212080000Y-153000000D03*
D29*
X127508000Y-59342000D03*
X127508000Y-54342000D03*
X127508000Y-69342000D03*
X127508000Y-74342000D03*
D30*
X158000000Y-35000000D03*
D31*
X152920000Y-35000000D03*
D27*
X178308000Y-117602000D03*
D28*
X180848000Y-117602000D03*
X178308000Y-120142000D03*
X180848000Y-120142000D03*
X178308000Y-122682000D03*
X180848000Y-122682000D03*
D32*
X218720000Y-32880000D03*
X218070000Y-32880000D03*
X217420000Y-32880000D03*
X216770000Y-32880000D03*
X216120000Y-32880000D03*
D33*
X219840000Y-33000000D03*
X215000000Y-33000000D03*
D34*
X220150000Y-30000000D03*
X214690000Y-30000000D03*
D35*
X218380000Y-29760000D03*
X216460000Y-29760000D03*
D27*
X201460000Y-52460000D03*
D28*
X204000000Y-52460000D03*
X201460000Y-55000000D03*
X204000000Y-55000000D03*
X201460000Y-57540000D03*
X204000000Y-57540000D03*
D27*
X186920000Y-41000000D03*
D28*
X189460000Y-41000000D03*
X192000000Y-41000000D03*
X194540000Y-41000000D03*
D36*
X139142000Y-137668000D03*
X145542000Y-137668000D03*
D37*
X152908000Y-42918000D03*
X152908000Y-55118000D03*
D38*
X102300000Y-70500000D03*
X91500000Y-59700000D03*
X80700000Y-70500000D03*
X91500000Y-81300000D03*
D39*
X206648000Y-72530000D03*
X207918000Y-73800000D03*
D40*
X205378000Y-73800000D03*
D39*
X198108000Y-72530000D03*
X199378000Y-73800000D03*
D40*
X196838000Y-73800000D03*
D41*
X145542000Y-126318000D03*
X145542000Y-123618000D03*
X139192000Y-128952000D03*
X139192000Y-131652000D03*
X139192000Y-126144000D03*
X139192000Y-123444000D03*
D42*
X111760000Y-102222000D03*
X111760000Y-110122000D03*
D43*
X162894000Y-137668000D03*
X160194000Y-137668000D03*
X141558000Y-84328000D03*
X138858000Y-84328000D03*
X139112000Y-91948000D03*
X141812000Y-91948000D03*
X228426000Y-129032000D03*
X225726000Y-129032000D03*
X177395000Y-95852500D03*
X174695000Y-95852500D03*
X174695000Y-93352500D03*
X177395000Y-93352500D03*
D37*
X65532000Y-80010000D03*
D44*
X65532000Y-64770000D03*
D41*
X206378000Y-79300000D03*
X206378000Y-82000000D03*
X221500000Y-103850000D03*
X221500000Y-101150000D03*
X215500000Y-130700000D03*
X215500000Y-128000000D03*
X213500000Y-130700000D03*
X213500000Y-128000000D03*
X206378000Y-65100000D03*
X206378000Y-67800000D03*
X198378000Y-65100000D03*
X198378000Y-67800000D03*
X198378000Y-82000000D03*
X198378000Y-79300000D03*
D43*
X87650000Y-151500000D03*
X90350000Y-151500000D03*
X87724000Y-147574000D03*
X90424000Y-147574000D03*
X90350000Y-149500000D03*
X87650000Y-149500000D03*
X87650000Y-153500000D03*
X90350000Y-153500000D03*
X208000000Y-55000000D03*
X210700000Y-55000000D03*
X197350000Y-55000000D03*
X194650000Y-55000000D03*
D41*
X217500000Y-103850000D03*
X217500000Y-101150000D03*
D42*
X111760000Y-121806000D03*
X111760000Y-113906000D03*
D45*
X100500000Y-82000000D03*
X102800000Y-77000000D03*
D46*
X181610000Y-143764000D03*
X179070000Y-146304000D03*
X176530000Y-143764000D03*
D47*
X145796000Y-114300000D03*
X147066000Y-114300000D03*
X148336000Y-114300000D03*
X149606000Y-114300000D03*
X149606000Y-120650000D03*
X148336000Y-120650000D03*
X147066000Y-120650000D03*
X145796000Y-120650000D03*
D48*
X199542000Y-129930000D03*
X198742000Y-129930000D03*
X197942000Y-129930000D03*
X197142000Y-129930000D03*
X196342000Y-129930000D03*
X195542000Y-129930000D03*
X194742000Y-129930000D03*
X193942000Y-129930000D03*
D49*
X192492000Y-131380000D03*
X192492000Y-132180000D03*
X192492000Y-132980000D03*
X192492000Y-133780000D03*
X192492000Y-134580000D03*
X192492000Y-135380000D03*
X192492000Y-136180000D03*
X192492000Y-136980000D03*
D48*
X193942000Y-138430000D03*
X194742000Y-138430000D03*
X195542000Y-138430000D03*
X196342000Y-138430000D03*
X197142000Y-138430000D03*
X197942000Y-138430000D03*
X198742000Y-138430000D03*
X199542000Y-138430000D03*
D49*
X200992000Y-136980000D03*
X200992000Y-136180000D03*
X200992000Y-135380000D03*
X200992000Y-134580000D03*
X200992000Y-133780000D03*
X200992000Y-132980000D03*
X200992000Y-132180000D03*
X200992000Y-131380000D03*
D50*
X134112000Y-85598000D03*
X134112000Y-86868000D03*
X134112000Y-88138000D03*
X134112000Y-89408000D03*
X127762000Y-89408000D03*
X127762000Y-88138000D03*
X127762000Y-86868000D03*
X127762000Y-85598000D03*
D51*
X170942000Y-96012000D03*
D52*
X163322000Y-93472000D03*
X170942000Y-93472000D03*
X163322000Y-96012000D03*
D53*
X225500000Y-107500000D03*
X223500000Y-107500000D03*
X221500000Y-107500000D03*
X219500000Y-107500000D03*
X217500000Y-107500000D03*
X215500000Y-107500000D03*
X213500000Y-107500000D03*
X211500000Y-107500000D03*
D54*
X210500000Y-110500000D03*
X210500000Y-112500000D03*
X210500000Y-114500000D03*
X210500000Y-116500000D03*
X210500000Y-118500000D03*
X210500000Y-120500000D03*
D53*
X211500000Y-123500000D03*
X213500000Y-123500000D03*
X215500000Y-123500000D03*
X217500000Y-123500000D03*
X219500000Y-123500000D03*
X221500000Y-123500000D03*
X223500000Y-123500000D03*
X225500000Y-123500000D03*
D47*
X219110000Y-51650000D03*
X221650000Y-51650000D03*
X222920000Y-51650000D03*
X224190000Y-51650000D03*
X225460000Y-51650000D03*
X226730000Y-51650000D03*
X228000000Y-51650000D03*
X228000000Y-58000000D03*
X226730000Y-58000000D03*
X225460000Y-58000000D03*
X224190000Y-58000000D03*
X222920000Y-58000000D03*
X221650000Y-58000000D03*
X220380000Y-58000000D03*
X219110000Y-58000000D03*
X220380000Y-51650000D03*
D55*
X202007500Y-114714000D03*
X190132500Y-114714000D03*
X228937500Y-70000000D03*
X217062500Y-70000000D03*
D56*
X112508000Y-94237000D03*
X117088000Y-94237000D03*
D57*
X114808000Y-86837000D03*
D56*
X159498000Y-132845000D03*
X164078000Y-132845000D03*
D57*
X161798000Y-125445000D03*
D58*
X141221000Y-101332000D03*
X141221000Y-105912000D03*
D57*
X148621000Y-103632000D03*
D59*
X76500000Y-151000000D03*
X81500000Y-151000000D03*
X76500000Y-153500000D03*
X79000000Y-153500000D03*
X81500000Y-153500000D03*
D16*
X73600000Y-150000000D03*
X84400000Y-150000000D03*
D60*
X74500000Y-42000000D03*
D61*
X77125000Y-42000000D03*
X76356155Y-43856155D03*
X74500000Y-44625000D03*
X72643845Y-43856155D03*
X71875000Y-42000000D03*
X72643845Y-40143845D03*
X74500000Y-39375000D03*
X76356155Y-40143845D03*
D60*
X74500000Y-142000000D03*
D61*
X77125000Y-142000000D03*
X76356155Y-143856155D03*
X74500000Y-144625000D03*
X72643845Y-143856155D03*
X71875000Y-142000000D03*
X72643845Y-140143845D03*
X74500000Y-139375000D03*
X76356155Y-140143845D03*
D60*
X214500000Y-42000000D03*
D61*
X217125000Y-42000000D03*
X216356155Y-43856155D03*
X214500000Y-44625000D03*
X212643845Y-43856155D03*
X211875000Y-42000000D03*
X212643845Y-40143845D03*
X214500000Y-39375000D03*
X216356155Y-40143845D03*
D60*
X214500000Y-142000000D03*
D61*
X217125000Y-142000000D03*
X216356155Y-143856155D03*
X214500000Y-144625000D03*
X212643845Y-143856155D03*
X211875000Y-142000000D03*
X212643845Y-140143845D03*
X214500000Y-139375000D03*
X216356155Y-140143845D03*
X148590000Y-129286000D03*
X148590000Y-123698000D03*
X161036000Y-140716000D03*
X229642400Y-62249200D03*
X170180000Y-141478000D03*
X215118000Y-131954200D03*
X196602500Y-128074400D03*
X196602500Y-111500000D03*
X195350900Y-128327100D03*
X197784400Y-131688700D03*
X187783200Y-82000000D03*
X155956000Y-105410000D03*
X195848800Y-141661000D03*
X198437300Y-135475900D03*
X197806600Y-134873100D03*
X189437000Y-147180200D03*
X182390200Y-137261400D03*
X185014900Y-138923900D03*
X200341800Y-128804700D03*
X190369500Y-131380000D03*
X191191700Y-132180000D03*
X193797600Y-132980000D03*
X186853100Y-136180000D03*
X199398600Y-133939800D03*
X191022800Y-124795300D03*
X195322600Y-80375400D03*
X199317900Y-132980000D03*
X199671500Y-132180000D03*
X223199300Y-121481300D03*
X223280100Y-120677800D03*
X200912000Y-139555300D03*
X199671300Y-136980000D03*
X219532300Y-52927300D03*
X208708500Y-119650000D03*
X222865700Y-56236700D03*
X219754100Y-64648500D03*
X142240000Y-128016000D03*
X145796000Y-118110000D03*
X195081800Y-135380000D03*
X202536900Y-147574000D03*
X191002700Y-134580000D03*
X189205200Y-100944100D03*
D62*
X117348000Y-121666000D03*
X123703000Y-94493000D03*
D61*
X103045000Y-143473200D03*
D62*
X121000000Y-101000000D03*
X121000000Y-105000000D03*
X121000000Y-108000000D03*
X124500000Y-108000000D03*
X128000000Y-108000000D03*
X131500000Y-108000000D03*
X131500000Y-105000000D03*
X131500000Y-101000000D03*
X128000000Y-101000000D03*
X128000000Y-105000000D03*
X124500000Y-101000000D03*
X124500000Y-105000000D03*
X131572000Y-103632000D03*
D63*
X139192000Y-131652000D02*
X137542000Y-131652000D01*
X137542000Y-131652000D02*
X135890000Y-130000000D01*
X135890000Y-130000000D02*
X135890000Y-116056000D01*
X135890000Y-116056000D02*
X137392000Y-114554000D01*
X137392000Y-114554000D02*
X139192000Y-114554000D01*
X139192000Y-131552000D02*
X139192000Y-131652000D01*
X145442000Y-131652000D02*
X145542000Y-131552000D01*
X139192000Y-131652000D02*
X145442000Y-131652000D01*
X139142000Y-131702000D02*
X139192000Y-131652000D01*
X139142000Y-137668000D02*
X139142000Y-131702000D01*
X148336000Y-114300000D02*
X149606000Y-114300000D01*
X147066000Y-114300000D02*
X148336000Y-114300000D01*
X145796000Y-114300000D02*
X147066000Y-114300000D01*
X145542000Y-114554000D02*
X145796000Y-114300000D01*
X139192000Y-114554000D02*
X145542000Y-114554000D01*
X148336000Y-109728000D02*
X148336000Y-114300000D01*
X148621000Y-109443000D02*
X148336000Y-109728000D01*
X148621000Y-103632000D02*
X148621000Y-109443000D01*
X145796000Y-120650000D02*
X145796000Y-123364000D01*
X145796000Y-123364000D02*
X145542000Y-123618000D01*
X145776000Y-129286000D02*
X145542000Y-129052000D01*
X148590000Y-129286000D02*
X145776000Y-129286000D01*
X148510000Y-123618000D02*
X148590000Y-123698000D01*
X145542000Y-123618000D02*
X148510000Y-123618000D01*
X153590000Y-126318000D02*
X145542000Y-126318000D01*
X154463000Y-125445000D02*
X153590000Y-126318000D01*
X161798000Y-125445000D02*
X154463000Y-125445000D01*
X143716000Y-126318000D02*
X145542000Y-126318000D01*
X140842000Y-123444000D02*
X143716000Y-126318000D01*
X139192000Y-123444000D02*
X140842000Y-123444000D01*
X139192000Y-118154000D02*
X139192000Y-123444000D01*
D64*
X92200000Y-82000000D02*
X91500000Y-81300000D01*
X100500000Y-82000000D02*
X92200000Y-82000000D01*
X100500000Y-84500000D02*
X101500000Y-85500000D01*
X100500000Y-82000000D02*
X100500000Y-84500000D01*
X127508000Y-54342000D02*
X127508000Y-59342000D01*
X121000000Y-47834000D02*
X127508000Y-54342000D01*
X121000000Y-44000000D02*
X121000000Y-47834000D01*
X102800000Y-71000000D02*
X102300000Y-70500000D01*
X102800000Y-77000000D02*
X102800000Y-71000000D01*
X102800000Y-80000000D02*
X105500000Y-82700000D01*
X102800000Y-77000000D02*
X102800000Y-80000000D01*
X127508000Y-69342000D02*
X127508000Y-74342000D01*
X113858000Y-74342000D02*
X105500000Y-82700000D01*
X127508000Y-74342000D02*
X113858000Y-74342000D01*
X105500000Y-82700000D02*
X105500000Y-85500000D01*
D65*
X138662000Y-88898000D02*
X138662000Y-88138000D01*
X141712000Y-91948000D02*
X138662000Y-88898000D01*
X141812000Y-91948000D02*
X141712000Y-91948000D01*
X134112000Y-88138000D02*
X134112000Y-86868000D01*
X138662000Y-88138000D02*
X134112000Y-88138000D01*
X225806000Y-133604000D02*
X225806000Y-139274000D01*
X225806000Y-139274000D02*
X212080000Y-153000000D01*
X163322000Y-93472000D02*
X164453370Y-93472000D01*
X164453370Y-93472000D02*
X170942000Y-93472000D01*
D63*
X161036000Y-140716000D02*
X161036000Y-138510000D01*
X161036000Y-138510000D02*
X160194000Y-137668000D01*
D65*
X185789000Y-122682000D02*
X180848000Y-122682000D01*
X189382000Y-119089000D02*
X185789000Y-122682000D01*
X189382000Y-118214000D02*
X189382000Y-119089000D01*
D63*
X160194000Y-137668000D02*
X155194000Y-137668000D01*
D65*
X173355000Y-88352500D02*
X174505000Y-88352500D01*
X170942000Y-90765200D02*
X173355000Y-88352500D01*
X170942000Y-93472000D02*
X170942000Y-90765200D01*
X157988000Y-88138000D02*
X163322000Y-93472000D01*
X142262000Y-88138000D02*
X157988000Y-88138000D01*
X142262000Y-85032000D02*
X141558000Y-84328000D01*
X142262000Y-88138000D02*
X142262000Y-85032000D01*
X141458000Y-84328000D02*
X141558000Y-84328000D01*
X140483000Y-83353000D02*
X141458000Y-84328000D01*
X132865000Y-83353000D02*
X140483000Y-83353000D01*
X128080000Y-88138000D02*
X132865000Y-83353000D01*
X127762000Y-88138000D02*
X128080000Y-88138000D01*
D64*
X106032000Y-102222000D02*
X103632000Y-99822000D01*
X111760000Y-102222000D02*
X106032000Y-102222000D01*
X103632000Y-102922000D02*
X103632000Y-99822000D01*
X93524000Y-113030000D02*
X103632000Y-102922000D01*
X80264000Y-113030000D02*
X93524000Y-113030000D01*
D63*
X119126000Y-132588000D02*
X99822000Y-132588000D01*
X125222000Y-126492000D02*
X119126000Y-132588000D01*
X125222000Y-119161000D02*
X125222000Y-126492000D01*
X138471000Y-105912000D02*
X125222000Y-119161000D01*
X141221000Y-105912000D02*
X138471000Y-105912000D01*
X99822000Y-132588000D02*
X80264000Y-113030000D01*
D65*
X197942000Y-129930000D02*
X197942000Y-128880000D01*
X196342000Y-128880000D02*
X196342000Y-129930000D01*
X196417000Y-128805000D02*
X196342000Y-128880000D01*
X197867000Y-128805000D02*
X196417000Y-128805000D01*
X197942000Y-128880000D02*
X197867000Y-128805000D01*
X197942000Y-121529000D02*
X197942000Y-124339400D01*
X200382000Y-119089000D02*
X197942000Y-121529000D01*
X200382000Y-118214000D02*
X200382000Y-119089000D01*
X197942000Y-124339400D02*
X197942000Y-128880000D01*
X87750000Y-145542000D02*
X87750000Y-144970900D01*
X82328800Y-144970900D02*
X82250000Y-145049700D01*
X87750000Y-144970900D02*
X82328800Y-144970900D01*
X217000000Y-63500000D02*
X217950300Y-63500000D01*
X213500000Y-130700000D02*
X212524700Y-130700000D01*
X210660600Y-128835900D02*
X212524700Y-130700000D01*
X210660600Y-124339400D02*
X210660600Y-128835900D01*
X197942000Y-124339400D02*
X210660600Y-124339400D01*
X210660600Y-124339400D02*
X211500000Y-123500000D01*
X197142000Y-131780000D02*
X197142000Y-138430000D01*
X196342000Y-130980000D02*
X197142000Y-131780000D01*
X196342000Y-129930000D02*
X196342000Y-130980000D01*
X197142000Y-138430000D02*
X197142000Y-139555300D01*
X189460000Y-41000000D02*
X190635300Y-41000000D01*
X214850000Y-31335300D02*
X214690000Y-31175300D01*
X216460000Y-31335300D02*
X214850000Y-31335300D01*
X214690000Y-30000000D02*
X214690000Y-31175300D01*
X219990000Y-31335300D02*
X220150000Y-31175300D01*
X218380000Y-31335300D02*
X219990000Y-31335300D01*
X220150000Y-30000000D02*
X220150000Y-31175300D01*
X216460000Y-30547600D02*
X218380000Y-30547600D01*
X218380000Y-29760000D02*
X218380000Y-30547600D01*
X218380000Y-30547600D02*
X218380000Y-31335300D01*
X216460000Y-29760000D02*
X216460000Y-30547600D01*
X216460000Y-30547600D02*
X216460000Y-31335300D01*
X198268000Y-33000000D02*
X215000000Y-33000000D01*
X190635300Y-40632700D02*
X198268000Y-33000000D01*
X190635300Y-41000000D02*
X190635300Y-40632700D01*
X216075000Y-34075300D02*
X216120000Y-34030300D01*
X215000000Y-34075300D02*
X216075000Y-34075300D01*
X216120000Y-32880000D02*
X216120000Y-34030300D01*
X215000000Y-33000000D02*
X215000000Y-34075300D01*
X176520000Y-153000000D02*
X177695300Y-153000000D01*
X177695300Y-153301300D02*
X177695300Y-153000000D01*
X178569300Y-154175300D02*
X177695300Y-153301300D01*
X202473700Y-154175300D02*
X178569300Y-154175300D01*
X203190000Y-153459000D02*
X202473700Y-154175300D01*
X203190000Y-152598700D02*
X203190000Y-153459000D01*
X203976300Y-151812400D02*
X203190000Y-152598700D01*
X210084400Y-151812400D02*
X203976300Y-151812400D01*
X210904700Y-152632700D02*
X210084400Y-151812400D01*
X210904700Y-153000000D02*
X210904700Y-152632700D01*
X212080000Y-153000000D02*
X210904700Y-153000000D01*
X229000000Y-63500000D02*
X229000000Y-62424700D01*
X229466900Y-62424700D02*
X229000000Y-62424700D01*
X229642400Y-62249200D02*
X229466900Y-62424700D01*
X175730300Y-87892900D02*
X175730300Y-88352500D01*
X176496000Y-87127200D02*
X175730300Y-87892900D01*
X208837900Y-87127200D02*
X176496000Y-87127200D01*
X216452700Y-94742000D02*
X208837900Y-87127200D01*
X217678000Y-94742000D02*
X216452700Y-94742000D01*
X174505000Y-88352500D02*
X175730300Y-88352500D01*
X82250000Y-146000000D02*
X82250000Y-145524800D01*
X82250000Y-145524800D02*
X82250000Y-145049700D01*
X81500000Y-146274800D02*
X81500000Y-151000000D01*
X82250000Y-145524800D02*
X81500000Y-146274800D01*
X87750000Y-144667000D02*
X95755800Y-136661200D01*
X87750000Y-144970900D02*
X87750000Y-144667000D01*
X99822000Y-132595000D02*
X99822000Y-132588000D01*
X95755800Y-136661200D02*
X99822000Y-132595000D01*
X176192300Y-144101700D02*
X176530000Y-143764000D01*
X102789200Y-144101700D02*
X176192300Y-144101700D01*
X95755800Y-137068300D02*
X102789200Y-144101700D01*
X95755800Y-136661200D02*
X95755800Y-137068300D01*
X179435200Y-143764000D02*
X176530000Y-143764000D01*
X180527200Y-144856000D02*
X179435200Y-143764000D01*
X191738700Y-144856000D02*
X180527200Y-144856000D01*
X197039400Y-139555300D02*
X191738700Y-144856000D01*
X197142000Y-139555300D02*
X197039400Y-139555300D01*
X229642400Y-58306000D02*
X229642400Y-62249200D01*
X228439500Y-57103100D02*
X229642400Y-58306000D01*
X226340000Y-57103100D02*
X228439500Y-57103100D01*
X226039400Y-57403700D02*
X226340000Y-57103100D01*
X226039400Y-58706200D02*
X226039400Y-57403700D01*
X225848800Y-58896800D02*
X226039400Y-58706200D01*
X219110000Y-58896800D02*
X225848800Y-58896800D01*
X219110000Y-58000000D02*
X219110000Y-58896800D01*
X219110000Y-62340300D02*
X217950300Y-63500000D01*
X219110000Y-58896800D02*
X219110000Y-62340300D01*
D63*
X168993736Y-142240000D02*
X155316000Y-142240000D01*
X155316000Y-142240000D02*
X150744000Y-137668000D01*
X150744000Y-137668000D02*
X149794000Y-137668000D01*
X170180000Y-141478000D02*
X169755736Y-141478000D01*
X169755736Y-141478000D02*
X168993736Y-142240000D01*
X170180000Y-141478000D02*
X170180000Y-136947000D01*
X170180000Y-136947000D02*
X166078000Y-132845000D01*
X166078000Y-132845000D02*
X164078000Y-132845000D01*
X149794000Y-137668000D02*
X145542000Y-137668000D01*
X164078000Y-136484000D02*
X162894000Y-137668000D01*
X164078000Y-132845000D02*
X164078000Y-136484000D01*
D65*
X218929000Y-102745700D02*
X220524700Y-101150000D01*
X216087000Y-102745700D02*
X218929000Y-102745700D01*
X211500000Y-107332700D02*
X216087000Y-102745700D01*
X211500000Y-107500000D02*
X211500000Y-107332700D01*
X221500000Y-101150000D02*
X220524700Y-101150000D01*
X196342000Y-139555300D02*
X194742000Y-139555300D01*
X194742000Y-138430000D02*
X194742000Y-139442700D01*
X194742000Y-139442700D02*
X194742000Y-139555300D01*
X185818600Y-139555400D02*
X181610000Y-143764000D01*
X194742000Y-139555400D02*
X185818600Y-139555400D01*
X194742000Y-139555300D02*
X194742000Y-139555400D01*
X196342000Y-138992600D02*
X196342000Y-139555300D01*
X196342000Y-138992600D02*
X196342000Y-138430000D01*
X195542000Y-134006100D02*
X195542000Y-129930000D01*
X196342000Y-134806100D02*
X195542000Y-134006100D01*
X196342000Y-138430000D02*
X196342000Y-134806100D01*
X91203400Y-150524700D02*
X90350000Y-150524700D01*
X91467000Y-150261100D02*
X91203400Y-150524700D01*
X91467000Y-148617000D02*
X91467000Y-150261100D01*
X90424000Y-147574000D02*
X91467000Y-148617000D01*
X215500000Y-130700000D02*
X215500000Y-131775300D01*
X215296900Y-131775300D02*
X215118000Y-131954200D01*
X215500000Y-131775300D02*
X215296900Y-131775300D01*
X220524700Y-95171400D02*
X220524700Y-101150000D01*
X207353300Y-82000000D02*
X220524700Y-95171400D01*
X206378000Y-82000000D02*
X207353300Y-82000000D01*
X180848000Y-117602000D02*
X182023300Y-117602000D01*
X209540000Y-153000000D02*
X208364700Y-153000000D01*
X173980000Y-153000000D02*
X175155300Y-153000000D01*
X208364700Y-153367300D02*
X208364700Y-153000000D01*
X207106400Y-154625600D02*
X208364700Y-153367300D01*
X176413500Y-154625600D02*
X207106400Y-154625600D01*
X175155300Y-153367400D02*
X176413500Y-154625600D01*
X175155300Y-153000000D02*
X175155300Y-153367400D01*
X212364300Y-108364300D02*
X211500000Y-107500000D01*
X212364300Y-110817500D02*
X212364300Y-108364300D01*
X211681800Y-111500000D02*
X212364300Y-110817500D01*
X196602500Y-111500000D02*
X211681800Y-111500000D01*
X187904900Y-111500000D02*
X196602500Y-111500000D01*
X182023300Y-117381600D02*
X187904900Y-111500000D01*
X182023300Y-117602000D02*
X182023300Y-117381600D01*
X222920000Y-58000000D02*
X222920000Y-57103200D01*
X195542000Y-129930000D02*
X195542000Y-128804700D01*
X186920000Y-41000000D02*
X188095300Y-41000000D01*
X188095300Y-41367400D02*
X188095300Y-41000000D01*
X197481100Y-50753200D02*
X188095300Y-41367400D01*
X219110000Y-50753200D02*
X197481100Y-50753200D01*
X219110000Y-51650000D02*
X219110000Y-50753200D01*
X222823900Y-57103200D02*
X222920000Y-57103200D01*
X218907000Y-53186300D02*
X222823900Y-57103200D01*
X218907000Y-51853000D02*
X218907000Y-53186300D01*
X219110000Y-51650000D02*
X218907000Y-51853000D01*
X195542000Y-128804700D02*
X195542000Y-128327100D01*
X195794700Y-128074400D02*
X195542000Y-128327100D01*
X196602500Y-128074400D02*
X195794700Y-128074400D01*
X195542000Y-128327100D02*
X195350900Y-128327100D01*
X197151000Y-131055300D02*
X197784400Y-131688700D01*
X197142000Y-131055300D02*
X197151000Y-131055300D01*
X197142000Y-129930000D02*
X197142000Y-131055300D01*
X206378000Y-82000000D02*
X198378000Y-82000000D01*
X198378000Y-82000000D02*
X187783200Y-82000000D01*
X90350000Y-151500000D02*
X90350000Y-151012300D01*
X90350000Y-151012300D02*
X90350000Y-150524700D01*
X171329300Y-154475400D02*
X172804700Y-153000000D01*
X89371800Y-154475400D02*
X171329300Y-154475400D01*
X89210000Y-154313600D02*
X89371800Y-154475400D01*
X89210000Y-152152300D02*
X89210000Y-154313600D01*
X90350000Y-151012300D02*
X89210000Y-152152300D01*
X173980000Y-153000000D02*
X172804700Y-153000000D01*
X193417000Y-129930000D02*
X193942000Y-129930000D01*
X191882000Y-128395000D02*
X193417000Y-129930000D01*
X191882000Y-118214000D02*
X191882000Y-128395000D01*
X190132500Y-114714500D02*
X190132000Y-114714000D01*
X191882000Y-116464000D02*
X190132500Y-114714500D01*
X191882000Y-118214000D02*
X191882000Y-116464000D01*
X190132500Y-114714500D02*
X190132500Y-114714000D01*
X202007500Y-114714000D02*
X197744700Y-114714000D01*
X206270300Y-115901000D02*
X206270300Y-114714000D01*
X203957300Y-118214000D02*
X206270300Y-115901000D01*
X202007500Y-114714000D02*
X206270300Y-114714000D01*
X202882000Y-118214000D02*
X203957300Y-118214000D01*
X194725600Y-128788300D02*
X194742000Y-128804700D01*
X194725600Y-117733100D02*
X194725600Y-128788300D01*
X197744700Y-114714000D02*
X194725600Y-117733100D01*
X194742000Y-129930000D02*
X194742000Y-128804700D01*
D63*
X155956000Y-112728000D02*
X155956000Y-105410000D01*
X149606000Y-119078000D02*
X155956000Y-112728000D01*
X149606000Y-120650000D02*
X149606000Y-119078000D01*
D64*
X126881000Y-80264000D02*
X123833000Y-83312000D01*
D63*
X123904000Y-83312000D02*
X123833000Y-83312000D01*
X126190000Y-85598000D02*
X123904000Y-83312000D01*
X127762000Y-85598000D02*
X126190000Y-85598000D01*
X126881000Y-83463000D02*
X126881000Y-80264000D01*
X127762000Y-84344000D02*
X126881000Y-83463000D01*
X127762000Y-85598000D02*
X127762000Y-84344000D01*
D64*
X120308000Y-86837000D02*
X114808000Y-86837000D01*
X123833000Y-83312000D02*
X120308000Y-86837000D01*
X136398000Y-80264000D02*
X126881000Y-80264000D01*
X160020000Y-56642000D02*
X136398000Y-80264000D01*
X160020000Y-40820000D02*
X160020000Y-56642000D01*
X158000000Y-38800000D02*
X160020000Y-40820000D01*
X158000000Y-35000000D02*
X158000000Y-38800000D01*
X109308000Y-86837000D02*
X114808000Y-86837000D01*
X107376000Y-88769000D02*
X109308000Y-86837000D01*
X107376000Y-90678000D02*
X107376000Y-88769000D01*
X104032000Y-94022000D02*
X107376000Y-90678000D01*
X103632000Y-94022000D02*
X104032000Y-94022000D01*
X85272000Y-94022000D02*
X103632000Y-94022000D01*
X80264000Y-99030000D02*
X85272000Y-94022000D01*
X80264000Y-103030000D02*
X80264000Y-99030000D01*
X76264000Y-103030000D02*
X80264000Y-103030000D01*
X65532000Y-92298000D02*
X76264000Y-103030000D01*
X65532000Y-80010000D02*
X65532000Y-92298000D01*
D65*
X84750000Y-146000000D02*
X85825300Y-146000000D01*
X192176500Y-145333300D02*
X195848800Y-141661000D01*
X180142300Y-145333300D02*
X192176500Y-145333300D01*
X179890100Y-145081100D02*
X180142300Y-145333300D01*
X133887700Y-145081100D02*
X179890100Y-145081100D01*
X133398200Y-144591600D02*
X133887700Y-145081100D01*
X89327100Y-144591600D02*
X133398200Y-144591600D01*
X88825400Y-145093300D02*
X89327100Y-144591600D01*
X88825400Y-146386100D02*
X88825400Y-145093300D01*
X88612900Y-146598600D02*
X88825400Y-146386100D01*
X88506600Y-146492400D02*
X88612900Y-146598600D01*
X86317700Y-146492400D02*
X88506600Y-146492400D01*
X85825300Y-146000000D02*
X86317700Y-146492400D01*
X88838100Y-147988100D02*
X90350000Y-149500000D01*
X88838100Y-146823900D02*
X88838100Y-147988100D01*
X88612900Y-146598600D02*
X88838100Y-146823900D01*
X199547900Y-131380000D02*
X200992000Y-131380000D01*
X199008200Y-131919700D02*
X199547900Y-131380000D01*
X199008200Y-132369200D02*
X199008200Y-131919700D01*
X198437300Y-132940100D02*
X199008200Y-132369200D01*
X198437300Y-135475900D02*
X198437300Y-132940100D01*
X189244300Y-147372900D02*
X91965100Y-147372900D01*
X189437000Y-147180200D02*
X189244300Y-147372900D01*
X91965100Y-146181800D02*
X91965100Y-147372900D01*
X91325300Y-145542000D02*
X91965100Y-146181800D01*
X91203400Y-152524700D02*
X90350000Y-152524700D01*
X91965100Y-151763000D02*
X91203400Y-152524700D01*
X91965100Y-147372900D02*
X91965100Y-151763000D01*
X90350000Y-153500000D02*
X90350000Y-152524700D01*
X90250000Y-145542000D02*
X91325300Y-145542000D01*
X199542000Y-130709800D02*
X199542000Y-129930000D01*
X198557900Y-131693900D02*
X199542000Y-130709800D01*
X198557900Y-132096000D02*
X198557900Y-131693900D01*
X197806600Y-132847300D02*
X198557900Y-132096000D01*
X197806600Y-134873100D02*
X197806600Y-132847300D01*
X230372300Y-66000000D02*
X229000000Y-66000000D01*
X233200300Y-68828000D02*
X230372300Y-66000000D01*
X233200300Y-70000000D02*
X233200300Y-68828000D01*
X228937500Y-70000000D02*
X233200300Y-70000000D01*
X228000000Y-65950300D02*
X228049700Y-66000000D01*
X228000000Y-58000000D02*
X228000000Y-65950300D01*
X229000000Y-66000000D02*
X228049700Y-66000000D01*
X215627700Y-66000000D02*
X217000000Y-66000000D01*
X212799700Y-68828000D02*
X215627700Y-66000000D01*
X212799700Y-70000000D02*
X212799700Y-68828000D01*
X217062500Y-70000000D02*
X212799700Y-70000000D01*
X226730000Y-58000000D02*
X226730000Y-58896800D01*
X217000000Y-66000000D02*
X217950300Y-66000000D01*
X219626800Y-66000000D02*
X226730000Y-58896800D01*
X217950300Y-66000000D02*
X219626800Y-66000000D01*
X228346000Y-133604000D02*
X228346000Y-129112000D01*
X228346000Y-129112000D02*
X228426000Y-129032000D01*
D64*
X84000000Y-55430000D02*
X84000000Y-52500000D01*
X83820000Y-55610000D02*
X84000000Y-55430000D01*
X87910000Y-59700000D02*
X83820000Y-55610000D01*
X91500000Y-59700000D02*
X87910000Y-59700000D01*
X77110000Y-70500000D02*
X80700000Y-70500000D01*
X76500000Y-69890000D02*
X77110000Y-70500000D01*
X76500000Y-52500000D02*
X76500000Y-69890000D01*
X66500000Y-63802000D02*
X65532000Y-64770000D01*
X66500000Y-52500000D02*
X66500000Y-63802000D01*
D65*
X174695000Y-90702500D02*
X177045000Y-88352500D01*
X174695000Y-93352500D02*
X174695000Y-90702500D01*
X217500000Y-97460000D02*
X217678000Y-97282000D01*
X217500000Y-101150000D02*
X217500000Y-97460000D01*
X182671600Y-136980000D02*
X192492000Y-136980000D01*
X182390200Y-137261400D02*
X182671600Y-136980000D01*
X193448100Y-138923900D02*
X193942000Y-138430000D01*
X185014900Y-138923900D02*
X193448100Y-138923900D01*
X186680000Y-153000000D02*
X186680000Y-151824700D01*
X198742000Y-139762700D02*
X198742000Y-138430000D01*
X186680000Y-151824700D02*
X198742000Y-139762700D01*
X198742000Y-129930000D02*
X198742000Y-128804700D01*
X198742000Y-128804700D02*
X200341800Y-128804700D01*
X192492000Y-131380000D02*
X190369500Y-131380000D01*
X192492000Y-132180000D02*
X191366700Y-132180000D01*
X191366700Y-132180000D02*
X191191700Y-132180000D01*
X192492000Y-132980000D02*
X193617300Y-132980000D01*
X193617300Y-132980000D02*
X193797600Y-132980000D01*
D64*
X152908000Y-35012000D02*
X152920000Y-35000000D01*
X152908000Y-42918000D02*
X152908000Y-35012000D01*
D65*
X192492000Y-136180000D02*
X186853100Y-136180000D01*
X225500000Y-97446700D02*
X207353300Y-79300000D01*
X225500000Y-107500000D02*
X225500000Y-97446700D01*
X179483300Y-123049300D02*
X179483300Y-122682000D01*
X181229300Y-124795300D02*
X179483300Y-123049300D01*
X191022800Y-124795300D02*
X181229300Y-124795300D01*
X178308000Y-122682000D02*
X179483300Y-122682000D01*
X206865700Y-79300000D02*
X207353300Y-79300000D01*
X207918000Y-78247700D02*
X207918000Y-73800000D01*
X206865700Y-79300000D02*
X207918000Y-78247700D01*
X206621900Y-79300000D02*
X206865700Y-79300000D01*
X206621900Y-79300000D02*
X206378000Y-79300000D01*
X206378000Y-79300000D02*
X205402700Y-79300000D01*
X204327300Y-80375400D02*
X195322600Y-80375400D01*
X205402700Y-79300000D02*
X204327300Y-80375400D01*
X200992000Y-133780000D02*
X199866700Y-133780000D01*
X199706900Y-133939800D02*
X199398600Y-133939800D01*
X199866700Y-133780000D02*
X199706900Y-133939800D01*
X218070000Y-35058800D02*
X218070000Y-32880000D01*
X224880700Y-41869500D02*
X218070000Y-35058800D01*
X224880700Y-56523900D02*
X224880700Y-41869500D01*
X225460000Y-57103200D02*
X224880700Y-56523900D01*
X225460000Y-58000000D02*
X225460000Y-57103200D01*
X217420000Y-35880100D02*
X217420000Y-32880000D01*
X223610700Y-42070800D02*
X217420000Y-35880100D01*
X223610700Y-56523900D02*
X223610700Y-42070800D01*
X224190000Y-57103200D02*
X223610700Y-56523900D01*
X224190000Y-58000000D02*
X224190000Y-57103200D01*
X199317900Y-132980000D02*
X200992000Y-132980000D01*
X200992000Y-132180000D02*
X199671500Y-132180000D01*
X197350000Y-55000000D02*
X201460000Y-55000000D01*
X208000000Y-55000000D02*
X204000000Y-55000000D01*
X223500000Y-123500000D02*
X223500000Y-121674700D01*
X223306600Y-121481300D02*
X223199300Y-121481300D01*
X223500000Y-121674700D02*
X223306600Y-121481300D01*
X224503100Y-120677800D02*
X223280100Y-120677800D01*
X225500000Y-121674700D02*
X224503100Y-120677800D01*
X225500000Y-123500000D02*
X225500000Y-121674700D01*
X199542000Y-138430000D02*
X199542000Y-139555300D01*
X200912000Y-139555300D02*
X199542000Y-139555300D01*
X200992000Y-136980000D02*
X199866700Y-136980000D01*
X199866700Y-136980000D02*
X199671300Y-136980000D01*
X206648000Y-69145300D02*
X206648000Y-72530000D01*
X206378000Y-68875300D02*
X206648000Y-69145300D01*
X206378000Y-67800000D02*
X206378000Y-68875300D01*
X198378000Y-65100000D02*
X199353300Y-65100000D01*
X205378000Y-73800000D02*
X205378000Y-72974700D01*
X205378000Y-71124700D02*
X205378000Y-72974700D01*
X199353300Y-65100000D02*
X205378000Y-71124700D01*
X219912800Y-52546800D02*
X219532300Y-52927300D01*
X221650000Y-52546800D02*
X219912800Y-52546800D01*
X221650000Y-51650000D02*
X221650000Y-52546800D01*
X198108000Y-69145300D02*
X198108000Y-72530000D01*
X198378000Y-68875300D02*
X198108000Y-69145300D01*
X198378000Y-67800000D02*
X198378000Y-68875300D01*
X213866400Y-119650000D02*
X208708500Y-119650000D01*
X217500000Y-123283600D02*
X213866400Y-119650000D01*
X217500000Y-123500000D02*
X217500000Y-123283600D01*
X199353300Y-73824700D02*
X199378000Y-73800000D01*
X199353300Y-79300000D02*
X199353300Y-73824700D01*
X198378000Y-79300000D02*
X199353300Y-79300000D01*
X206378000Y-65100000D02*
X205402700Y-65100000D01*
X196838000Y-64700900D02*
X196838000Y-73800000D01*
X197557800Y-63981100D02*
X196838000Y-64700900D01*
X204283800Y-63981100D02*
X197557800Y-63981100D01*
X205402700Y-65100000D02*
X204283800Y-63981100D01*
X222865700Y-52601100D02*
X222865700Y-56236700D01*
X222920000Y-52546800D02*
X222865700Y-52601100D01*
X207804800Y-64648500D02*
X207353300Y-65100000D01*
X219754100Y-64648500D02*
X207804800Y-64648500D01*
X206378000Y-65100000D02*
X207353300Y-65100000D01*
X222920000Y-51650000D02*
X222920000Y-52546800D01*
D63*
X140128000Y-128016000D02*
X139192000Y-128952000D01*
X142240000Y-128016000D02*
X140128000Y-128016000D01*
X147066000Y-119380000D02*
X145796000Y-118110000D01*
X147066000Y-120650000D02*
X147066000Y-119380000D01*
X139192000Y-128952000D02*
X139192000Y-126144000D01*
D64*
X111760000Y-110122000D02*
X111760000Y-113906000D01*
D65*
X134878000Y-84328000D02*
X138858000Y-84328000D01*
X134112000Y-85094000D02*
X134878000Y-84328000D01*
X134112000Y-85598000D02*
X134112000Y-85094000D01*
X139112000Y-92848000D02*
X139112000Y-91948000D01*
X142276000Y-96012000D02*
X139112000Y-92848000D01*
X163322000Y-96012000D02*
X142276000Y-96012000D01*
X136148000Y-91948000D02*
X139112000Y-91948000D01*
X134112000Y-89912000D02*
X136148000Y-91948000D01*
X134112000Y-89408000D02*
X134112000Y-89912000D01*
X225726000Y-129032000D02*
X221078900Y-129032000D01*
X221078900Y-129032000D02*
X202536900Y-147574000D01*
X192492000Y-135380000D02*
X195081800Y-135380000D01*
X177395000Y-93352500D02*
X177395000Y-95852500D01*
X177395000Y-95852500D02*
X177395000Y-96827800D01*
X192492000Y-134580000D02*
X191002700Y-134580000D01*
X181511300Y-100944100D02*
X189205200Y-100944100D01*
X177395000Y-96827800D02*
X181511300Y-100944100D01*
X174535000Y-96012000D02*
X174695000Y-95852500D01*
X170942000Y-96012000D02*
X174535000Y-96012000D01*
X221500000Y-107500000D02*
X221500000Y-103850000D01*
X215500000Y-123500000D02*
X215500000Y-128000000D01*
X213500000Y-123500000D02*
X213500000Y-128000000D01*
X85667600Y-152407100D02*
X86574700Y-151500000D01*
X77592900Y-152407100D02*
X85667600Y-152407100D01*
X76500000Y-153500000D02*
X77592900Y-152407100D01*
X87650000Y-151500000D02*
X86574700Y-151500000D01*
X87650000Y-149500000D02*
X87650000Y-151500000D01*
X81500000Y-153500000D02*
X87650000Y-153500000D01*
X88725400Y-148575400D02*
X87724000Y-147574000D01*
X88725400Y-152302700D02*
X88725400Y-148575400D01*
X88503400Y-152524700D02*
X88725400Y-152302700D01*
X87650000Y-152524700D02*
X88503400Y-152524700D01*
X87650000Y-153500000D02*
X87650000Y-152524700D01*
X219546800Y-55000000D02*
X210700000Y-55000000D01*
X221650000Y-57103200D02*
X219546800Y-55000000D01*
X221650000Y-58000000D02*
X221650000Y-57103200D01*
X195039300Y-56364600D02*
X194650000Y-55975300D01*
X219641400Y-56364600D02*
X195039300Y-56364600D01*
X220380000Y-57103200D02*
X219641400Y-56364600D01*
X220380000Y-58000000D02*
X220380000Y-57103200D01*
X194650000Y-55000000D02*
X194650000Y-55975300D01*
X217500000Y-107500000D02*
X217500000Y-103850000D01*
X123703000Y-90105500D02*
X123703000Y-94493000D01*
X126940000Y-86868000D02*
X123703000Y-90105500D01*
X127762000Y-86868000D02*
X126940000Y-86868000D01*
D64*
X111900000Y-121666000D02*
X111760000Y-121806000D01*
X117348000Y-121666000D02*
X111900000Y-121666000D01*
X123703000Y-97435000D02*
X123703000Y-94493000D01*
D65*
X183764500Y-133780000D02*
X192492000Y-133780000D01*
X173949300Y-143595200D02*
X183764500Y-133780000D01*
X103167000Y-143595200D02*
X173949300Y-143595200D01*
X103045000Y-143473200D02*
X103167000Y-143595200D01*
X221500000Y-127260400D02*
X221500000Y-123500000D01*
X212580400Y-136180000D02*
X221500000Y-127260400D01*
X200992000Y-136180000D02*
X212580400Y-136180000D01*
X219500000Y-128622300D02*
X219500000Y-123500000D01*
X212742300Y-135380000D02*
X219500000Y-128622300D01*
X200992000Y-135380000D02*
X212742300Y-135380000D01*
X218500000Y-108500000D02*
X219500000Y-107500000D01*
X218500000Y-126913600D02*
X218500000Y-108500000D01*
X215789000Y-129624600D02*
X218500000Y-126913600D01*
X214697200Y-129624600D02*
X215789000Y-129624600D01*
X214475400Y-129846400D02*
X214697200Y-129624600D01*
X214475400Y-131584700D02*
X214475400Y-129846400D01*
X211480100Y-134580000D02*
X214475400Y-131584700D01*
X200992000Y-134580000D02*
X211480100Y-134580000D01*
X127762000Y-96934000D02*
X128263000Y-97435000D01*
X127762000Y-89408000D02*
X127762000Y-96934000D01*
X121000000Y-105000000D02*
X121000000Y-101000000D01*
X124500000Y-108000000D02*
X121000000Y-108000000D01*
X131500000Y-108000000D02*
X128000000Y-108000000D01*
X131572000Y-103632000D02*
X131572000Y-104928000D01*
X131572000Y-104928000D02*
X131500000Y-105000000D01*
X131500000Y-101000000D02*
X131500000Y-103560000D01*
X131500000Y-103560000D02*
X131572000Y-103632000D01*
D63*
X124714000Y-105666000D02*
X124458000Y-105410000D01*
D64*
X126086000Y-103632000D02*
X125983000Y-103735000D01*
X131572000Y-103632000D02*
X126086000Y-103632000D01*
X121083000Y-103735000D02*
X125983000Y-103735000D01*
X119888000Y-102540000D02*
X121083000Y-103735000D01*
X119888000Y-97787000D02*
X119888000Y-102540000D01*
X117088000Y-94987000D02*
X119888000Y-97787000D01*
X117088000Y-94237000D02*
X117088000Y-94987000D01*
D66*
G36*
X122546880Y-93336880D02*
X122192457Y-93867313D01*
X122068000Y-94493000D01*
X122068000Y-97435000D01*
X122192457Y-98060687D01*
X122455560Y-98454450D01*
X122455560Y-98535000D01*
X122499838Y-98770317D01*
X122638910Y-98986441D01*
X122851110Y-99131431D01*
X123103000Y-99182440D01*
X124303000Y-99182440D01*
X124538317Y-99138162D01*
X124754441Y-98999090D01*
X124899431Y-98786890D01*
X124950440Y-98535000D01*
X124950440Y-98454450D01*
X125213543Y-98060687D01*
X125338000Y-97435000D01*
X125338000Y-94493000D01*
X125213543Y-93867313D01*
X124859120Y-93336880D01*
X124545011Y-93127000D01*
X127002000Y-93127000D01*
X127002000Y-96934000D01*
X127015560Y-97002170D01*
X127015560Y-98535000D01*
X127059838Y-98770317D01*
X127198910Y-98986441D01*
X127411110Y-99131431D01*
X127663000Y-99182440D01*
X128863000Y-99182440D01*
X129098317Y-99138162D01*
X129314441Y-98999090D01*
X129459431Y-98786890D01*
X129510440Y-98535000D01*
X129510440Y-96335000D01*
X129466162Y-96099683D01*
X129327090Y-95883559D01*
X129114890Y-95738569D01*
X128863000Y-95687560D01*
X128522000Y-95687560D01*
X128522000Y-93127000D01*
X133373000Y-93127000D01*
X133373000Y-109373000D01*
X118627000Y-109373000D01*
X118627000Y-93127000D01*
X122860989Y-93127000D01*
X122546880Y-93336880D01*
X122546880Y-93336880D01*
G37*
X122546880Y-93336880D02*
X122192457Y-93867313D01*
X122068000Y-94493000D01*
X122068000Y-97435000D01*
X122192457Y-98060687D01*
X122455560Y-98454450D01*
X122455560Y-98535000D01*
X122499838Y-98770317D01*
X122638910Y-98986441D01*
X122851110Y-99131431D01*
X123103000Y-99182440D01*
X124303000Y-99182440D01*
X124538317Y-99138162D01*
X124754441Y-98999090D01*
X124899431Y-98786890D01*
X124950440Y-98535000D01*
X124950440Y-98454450D01*
X125213543Y-98060687D01*
X125338000Y-97435000D01*
X125338000Y-94493000D01*
X125213543Y-93867313D01*
X124859120Y-93336880D01*
X124545011Y-93127000D01*
X127002000Y-93127000D01*
X127002000Y-96934000D01*
X127015560Y-97002170D01*
X127015560Y-98535000D01*
X127059838Y-98770317D01*
X127198910Y-98986441D01*
X127411110Y-99131431D01*
X127663000Y-99182440D01*
X128863000Y-99182440D01*
X129098317Y-99138162D01*
X129314441Y-98999090D01*
X129459431Y-98786890D01*
X129510440Y-98535000D01*
X129510440Y-96335000D01*
X129466162Y-96099683D01*
X129327090Y-95883559D01*
X129114890Y-95738569D01*
X128863000Y-95687560D01*
X128522000Y-95687560D01*
X128522000Y-93127000D01*
X133373000Y-93127000D01*
X133373000Y-109373000D01*
X118627000Y-109373000D01*
X118627000Y-93127000D01*
X122860989Y-93127000D01*
X122546880Y-93336880D01*
M02*
